<svg width="233" height="228" viewBox="0 0 233 228" fill="none" xmlns="http://www.w3.org/2000/svg">
<path d="M19.9992 139.46C20.6681 141.859 22.2715 143.905 24.465 145.16L43.0079 155.705V176.605C43.0079 179.125 44.0308 181.541 45.8514 183.323C47.6721 185.104 50.1414 186.105 52.7162 186.105H74.0746L84.8508 204.25C85.6979 205.686 86.9143 206.88 88.379 207.713C89.8437 208.546 91.5058 208.99 93.2 209C94.9425 209 96.6527 208.54 98.1512 207.67L116.597 197.22L135.14 207.67C136.242 208.302 137.461 208.715 138.727 208.885C139.993 209.055 141.28 208.979 142.516 208.662C143.751 208.344 144.911 207.791 145.927 207.034C146.944 206.277 147.798 205.331 148.44 204.25L159.12 186.105H180.478C183.053 186.105 185.522 185.104 187.343 183.323C189.163 181.541 190.186 179.125 190.186 176.605V155.705L208.729 145.16C210.95 143.907 212.574 141.845 213.247 139.425C213.92 137.004 213.587 134.421 212.321 132.24L201.545 114L212.321 95.8551C213.587 93.6737 213.92 91.0911 213.247 88.6706C212.574 86.2501 210.95 84.1883 208.729 82.9351L190.186 72.4851V51.5851C190.186 49.0655 189.163 46.6492 187.343 44.8676C185.522 43.086 183.053 42.0851 180.478 42.0851H159.12L148.44 23.9401C147.135 21.7739 145.006 20.2024 142.518 19.5701C141.285 19.2458 139.999 19.1628 138.732 19.3258C137.466 19.4888 136.246 19.8947 135.14 20.5201L116.5 30.9701L98.0542 20.5201C95.8367 19.2736 93.2061 18.9336 90.734 19.5739C88.2618 20.2143 86.1477 21.7833 84.8508 23.9401L74.0746 42.0851H52.7162C50.1414 42.0851 47.6721 43.086 45.8514 44.8676C44.0308 46.6492 43.0079 49.0655 43.0079 51.5851V72.4851L24.5621 82.9351C23.4496 83.5557 22.4736 84.3856 21.6903 85.3769C20.907 86.3682 20.3319 87.5013 19.998 88.7111C19.6641 89.9208 19.5781 91.1832 19.7449 92.4256C19.9117 93.668 20.3281 94.8658 20.97 95.9501L31.6492 114L20.97 132.145C20.3179 133.239 19.8961 134.45 19.7294 135.707C19.5627 136.963 19.6544 138.239 19.9992 139.46ZM51.26 109.345L42.6196 95.0001L57.6675 86.4501C59.1167 85.6093 60.3174 84.4139 61.1515 82.9814C61.9855 81.5489 62.4243 79.9287 62.4246 78.2801V61.0851H79.7054C81.4161 61.0917 83.0982 60.6559 84.5815 59.8218C86.0647 58.9877 87.2963 57.7848 88.1517 56.3351L97.0833 41.7051L112.034 50.1601C113.51 50.9939 115.184 51.4328 116.888 51.4328C118.592 51.4328 120.267 50.9939 121.742 50.1601L136.79 41.7051L145.625 56.3351C146.48 57.7848 147.712 58.9877 149.195 59.8218C150.678 60.6559 152.361 61.0917 154.071 61.0851H171.255V77.9951C171.265 79.653 171.719 81.2794 172.57 82.7126C173.422 84.1459 174.642 85.3362 176.109 86.1651L191.06 94.7151L182.42 109.345C181.568 110.789 181.119 112.427 181.119 114.095C181.119 115.763 181.568 117.401 182.42 118.845L191.06 133.475L176.109 142.025C174.642 142.854 173.422 144.044 172.57 145.478C171.719 146.911 171.265 148.537 171.255 150.195V167.105H153.489C151.795 167.115 150.132 167.559 148.668 168.392C147.203 169.225 145.987 170.419 145.14 171.855L136.499 186.485L121.451 178.03C119.975 177.196 118.301 176.757 116.597 176.757C114.893 176.757 113.219 177.196 111.743 178.03L97.0833 186.485L88.4429 171.855C87.5876 170.405 86.3559 169.203 84.8727 168.368C83.3895 167.534 81.7074 167.098 79.9967 167.105H62.4246V150.195C62.3429 148.628 61.8656 147.105 61.0355 145.762C60.2054 144.419 59.0483 143.298 57.6675 142.5L42.6196 133.95L51.26 119.32C52.2051 117.821 52.7055 116.094 52.7055 114.333C52.7055 112.571 52.2051 110.844 51.26 109.345Z" fill="#4FC5C7"/>
<path d="M116.5 60.5833C87.3218 60.5833 63.5834 84.3217 63.5834 113.5C63.5834 142.678 87.3218 166.417 116.5 166.417C145.678 166.417 169.417 142.678 169.417 113.5C169.417 84.3217 145.678 60.5833 116.5 60.5833ZM105.922 136.852L86.274 117.246L93.7459 109.753L105.911 121.898L133.926 93.8837L141.408 101.366L105.922 136.852Z" fill="#4FC5C7"/>
</svg>
