<svg width="201" height="201" viewBox="0 0 201 201" fill="none" xmlns="http://www.w3.org/2000/svg">
<path d="M100.5 16.75C83.9359 16.75 67.7436 21.6619 53.971 30.8644C40.1984 40.067 29.464 53.1469 23.1251 68.4503C16.7863 83.7536 15.1278 100.593 18.3593 116.839C21.5908 133.085 29.5672 148.008 41.2798 159.72C52.9925 171.433 67.9153 179.409 84.1612 182.641C100.407 185.872 117.246 184.214 132.55 177.875C147.853 171.536 160.933 160.802 170.136 147.029C179.338 133.256 184.25 117.064 184.25 100.5C184.25 89.5018 182.084 78.6113 177.875 68.4503C173.666 58.2892 167.497 49.0567 159.72 41.2798C151.943 33.5029 142.711 27.3339 132.55 23.1251C122.389 18.9163 111.498 16.75 100.5 16.75ZM100.5 167.5C87.2487 167.5 74.2949 163.571 63.2768 156.208C52.2587 148.846 43.6712 138.382 38.6001 126.14C33.529 113.897 32.2022 100.426 34.7874 87.4289C37.3726 74.4322 43.7538 62.494 53.1239 53.1238C62.494 43.7537 74.4323 37.3726 87.429 34.7874C100.426 32.2022 113.897 33.529 126.14 38.6001C138.382 43.6711 148.846 52.2587 156.208 63.2768C163.571 74.2949 167.5 87.2486 167.5 100.5C167.5 118.27 160.441 135.311 147.876 147.876C135.311 160.441 118.27 167.5 100.5 167.5Z" fill="#4FC5C7"/>
<path d="M100.5 92.125C83.75 92.125 83.75 86.8488 83.75 83.75C83.75 80.6513 89.6125 75.375 100.5 75.375C111.388 75.375 112.141 80.735 112.225 83.75H128.975C128.862 78.0446 126.81 72.5476 123.157 68.1637C119.503 63.7799 114.466 60.7702 108.875 59.63V50.25H92.125V59.3788C75.375 62.1425 67 72.9463 67 83.75C67 93.13 71.355 108.875 100.5 108.875C117.25 108.875 117.25 114.57 117.25 117.25C117.25 119.93 112.057 125.625 100.5 125.625C85.09 125.625 83.75 118.423 83.75 117.25H67C67 124.955 72.5275 138.606 92.125 141.705V150.75H108.875V141.705C125.625 138.857 134 128.054 134 117.25C134 107.87 129.645 92.125 100.5 92.125Z" fill="#4FC5C7"/>
</svg>
